<svg width="35" height="46" viewBox="0 0 35 46" fill="none" xmlns="http://www.w3.org/2000/svg">
<path d="M10.3392 23.5015L22.5109 35.1171C22.714 35.311 22.9838 35.4192 23.2644 35.4192C23.5449 35.4192 23.8148 35.311 24.0179 35.1171L24.031 35.104C24.1298 35.01 24.2084 34.8968 24.2622 34.7714C24.3159 34.646 24.3437 34.5109 24.3437 34.3744C24.3437 34.238 24.3159 34.1029 24.2622 33.9775C24.2084 33.8521 24.1298 33.7389 24.031 33.6449L12.5691 22.7074L24.031 11.7743C24.1298 11.6803 24.2084 11.5671 24.2622 11.4417C24.3159 11.3163 24.3437 11.1812 24.3437 11.0448C24.3437 10.9083 24.3159 10.7732 24.2622 10.6478C24.2084 10.5224 24.1298 10.4092 24.031 10.3152L24.0179 10.3021C23.8148 10.1082 23.5449 10 23.2644 10C22.9838 10 22.714 10.1082 22.5109 10.3021L10.3392 21.9177C10.2322 22.0199 10.147 22.1427 10.0887 22.2789C10.0305 22.415 10.0005 22.5615 10.0005 22.7096C10.0005 22.8577 10.0305 23.0042 10.0887 23.1404C10.147 23.2765 10.2322 23.3993 10.3392 23.5015Z" fill="#616161"/>
</svg>
