<svg width="35" height="46" viewBox="0 0 35 46" fill="none" xmlns="http://www.w3.org/2000/svg">
<path d="M24.0045 21.9177L11.8329 10.3021C11.6298 10.1082 11.36 10 11.0794 10C10.7988 10 10.529 10.1082 10.3259 10.3021L10.3128 10.3152C10.214 10.4092 10.1353 10.5224 10.0816 10.6478C10.0278 10.7732 10.0001 10.9083 10.0001 11.0447C10.0001 11.1812 10.0278 11.3163 10.0816 11.4417C10.1353 11.5671 10.214 11.6803 10.3128 11.7743L21.7746 22.7118L10.3128 33.6449C10.214 33.7389 10.1353 33.8521 10.0816 33.9775C10.0278 34.1029 10.0001 34.2379 10.0001 34.3744C10.0001 34.5109 10.0278 34.646 10.0816 34.7714C10.1353 34.8968 10.214 35.01 10.3128 35.104L10.3259 35.1171C10.529 35.311 10.7988 35.4192 11.0794 35.4192C11.36 35.4192 11.6298 35.311 11.8329 35.1171L24.0045 23.5015C24.1116 23.3993 24.1968 23.2765 24.255 23.1403C24.3132 23.0042 24.3433 22.8577 24.3433 22.7096C24.3433 22.5615 24.3132 22.415 24.255 22.2788C24.1968 22.1427 24.1116 22.0199 24.0045 21.9177Z" fill="#333333"/>
</svg>
