<svg width="60" height="46" viewBox="0 0 60 46" fill="none" xmlns="http://www.w3.org/2000/svg">
<path fill-rule="evenodd" clip-rule="evenodd" d="M10 23C10 22.617 10.1505 22.2496 10.4184 21.9788C10.6863 21.7079 11.0496 21.5558 11.4285 21.5558H45.1206L36.1298 12.4686C35.8615 12.1974 35.7108 11.8296 35.7108 11.4461C35.7108 11.0625 35.8615 10.6947 36.1298 10.4235C36.398 10.1524 36.7618 10 37.1411 10C37.5205 10 37.8843 10.1524 38.1525 10.4235L49.5803 21.9775C49.7134 22.1116 49.8189 22.271 49.8909 22.4465C49.9629 22.6219 50 22.81 50 23C50 23.19 49.9629 23.3781 49.8909 23.5535C49.8189 23.729 49.7134 23.8884 49.5803 24.0225L38.1525 35.5765C37.8843 35.8476 37.5205 36 37.1411 36C36.7618 36 36.398 35.8476 36.1298 35.5765C35.8615 35.3053 35.7108 34.9375 35.7108 34.5539C35.7108 34.1704 35.8615 33.8026 36.1298 33.5314L45.1206 24.4442H11.4285C11.0496 24.4442 10.6863 24.2921 10.4184 24.0212C10.1505 23.7504 10 23.383 10 23Z" fill="#616161"/>
</svg>
